<svg preserveAspectRatio="none" width="100%" height="100%" overflow="visible" style="display: block;" viewBox="0 0 112.549 45.6367" fill="none" xmlns="http://www.w3.org/2000/svg">
<g id="Frame 34">
<g id="I">
<circle id="Ellipse 3" cx="107.725" cy="8.82492" r="4.82353" fill="url(#paint0_linear_0_448)"/>
<path id="Rectangle 18" d="M102.902 20.0774C102.902 18.8905 103.339 17.7452 104.131 16.8607C106.048 14.7183 109.402 14.7183 111.319 16.8607C112.111 17.7452 112.549 18.8905 112.549 20.0774V40.1779H105.313C103.981 40.1779 102.902 39.0981 102.902 37.7661V20.0774Z" fill="url(#paint1_linear_0_448)"/>
</g>
<path id="R" d="M86.9006 4.00097C91.2474 4.00097 93.2029 4.75853 95.6672 6.81542C98.1313 8.87249 98.8829 12.5672 98.883 16.0781C98.8829 19.5888 96.8731 21.5959 95.6672 22.4912L96.1066 22.9492C97.2247 24.1614 98.8827 26.3642 98.883 29.0586V40.1777H91.8801C90.5482 40.1776 89.468 39.0995 89.468 37.7676V30.9209C89.4678 29.8421 88.9746 28.8221 88.4318 28.1191C87.9568 27.5044 87.1671 27.3502 86.4728 27.3213L86.1818 27.3154H81.1965C80.3088 27.3155 79.5884 28.0352 79.5881 28.9228V37.7656C79.5881 39.0975 78.5088 40.1776 77.1769 40.1777H71.549V12.6152C71.5492 7.97983 74.9674 4.1998 79.2502 4.00976V4.00097H86.9006ZM82.0236 12.5283H82.0002C80.6682 12.5283 79.5881 13.6084 79.5881 14.9404V21.1455C79.5881 21.494 80.0513 21.6158 80.2228 21.3125C80.7286 20.4185 81.6062 19.8134 82.5988 19.6426H86.4387C87.7736 19.6426 88.7152 19.3057 89.2629 18.6318C89.8104 17.958 90.0841 17.1065 90.0842 16.0781C90.0841 15.0144 89.8103 14.1627 89.2629 13.5244C88.7494 12.8508 87.8932 12.5137 86.6955 12.5137H82.0236V12.5283Z" fill="url(#paint2_linear_0_448)"/>
<g id="U">
<g id="u" filter="url(#filter0_f_0_448)">
<path d="M49.9996 39.8936C48.7398 37.7326 49.9996 42.8434 49.9996 39.8936C47.6843 38.7273 50.1287 40.1149 49.9996 39.8936C46.8312 39.4409 52.281 41.0255 49.9996 39.8936C53.4996 40.3936 56.9996 41.3936 60.9996 38.8936C62.9996 37.6436 64.9011 35.8571 66.161 33.7304C67.0578 32.1494 67.6265 31.1691 67.8672 29.0077C68.0698 27.1887 67.0368 25.4757 65.4753 24.5212C63.8532 23.5298 61.7964 23.545 60.1961 24.5712C58.7015 25.5296 57.9575 27.2648 57.2043 28.8726C56.9461 29.424 56.6186 29.9092 56.2526 30.3347C55.3673 31.3637 54.1245 32.1386 52.5241 32.1386C50.8898 32.1386 49.6469 31.3637 48.7957 30.3347C48.7957 32.1526 47.9104 29.3056 48.7957 30.3347L49.9996 39.8936Z" fill="url(#paint3_linear_0_448)"/>
</g>
<g id="u_2" filter="url(#filter1_f_0_448)">
<path d="M38.8833 33.7304C37.6141 31.5695 36.9796 29.0141 36.9796 26.0642V20.4963C36.9796 19.4394 37.2989 18.4072 37.8957 17.535C39.9732 14.4987 44.4554 14.4975 46.5451 17.5255C47.1503 18.4026 47.4756 19.4446 47.4756 20.5102V26.0642C47.4756 27.8821 47.9215 29.3056 48.8133 30.3346C49.6708 31.3637 51.352 31.3939 52.9984 31.3939C59.5166 31.7959 59.1163 40.3939 52.9999 40.3939C49.7756 40.3939 46.5838 39.8016 44.2856 38.6697C41.9532 37.5035 40.1524 35.857 38.8833 33.7304Z" fill="var(--fill-0, #FB8C50)"/>
<path d="M38.8833 33.7304C37.6141 31.5695 36.9796 29.0141 36.9796 26.0642V20.4963C36.9796 19.4394 37.2989 18.4072 37.8957 17.535C39.9732 14.4987 44.4554 14.4975 46.5451 17.5255C47.1503 18.4026 47.4756 19.4446 47.4756 20.5102V26.0642C47.4756 27.8821 47.9215 29.3056 48.8133 30.3346C49.6708 31.3637 51.352 31.3939 52.9984 31.3939C59.5166 31.7959 59.1163 40.3939 52.9999 40.3939C49.7756 40.3939 46.5838 39.8016 44.2856 38.6697C41.9532 37.5035 40.1524 35.857 38.8833 33.7304Z" fill="url(#paint4_linear_0_448)"/>
</g>
<g id="Ellipse 4" filter="url(#filter2_f_0_448)">
<circle cx="41.803" cy="8.82426" r="4.82353" transform="rotate(-30.9834 41.803 8.82426)" fill="var(--fill-0, #FFA15E)"/>
<circle cx="41.803" cy="8.82426" r="4.82353" transform="rotate(-30.9834 41.803 8.82426)" fill="url(#paint5_radial_0_448)" fill-opacity="0.87"/>
</g>
<circle id="Ellipse 5" cx="63.5097" cy="16.0602" r="4.82353" fill="url(#paint6_linear_0_448)"/>
</g>
<path id="N" d="M0.814497 38.0635C0.283692 37.2792 0 36.3538 0 35.4068V13.4151C0 8.30917 4.13917 4.17 9.2451 4.17L9.62561 35.1159C9.63948 36.2437 9.26205 37.3413 8.55759 38.2221L8.44135 38.3674C6.44612 40.8619 2.60487 40.7089 0.814497 38.0635ZM25.2918 40.1144L24.7563 9.0494C24.7312 7.59254 25.36 6.19325 26.4612 5.23901C28.3285 3.62079 31.1229 3.63785 32.9564 5.29427C33.9829 6.22159 34.5686 7.5402 34.5686 8.9235V31.6211C34.5686 36.6263 30.2775 40.5549 25.2918 40.1144ZM25.1639 40.0706C22.1747 39.048 19.7062 36.893 18.2893 34.0693L9.39478 16.3435L5.96603 5.03026L9.2451 4.17C12.961 4.17 16.3373 6.33196 17.892 9.70693L25.2918 25.7699L29.8304 34.7093L25.2918 40.1144L25.1639 40.0706Z" fill="url(#paint7_linear_0_448)"/>
</g>
<defs>
<filter id="filter0_f_0_448" x="43.6022" y="18.9894" width="29.0903" height="26.6473" filterUnits="userSpaceOnUse" color-interpolation-filters="sRGB">
<feFlood flood-opacity="0" result="BackgroundImageFix"/>
<feBlend mode="normal" in="SourceGraphic" in2="BackgroundImageFix" result="shape"/>
<feGaussianBlur stdDeviation="2.4" result="effect1_foregroundBlur_0_448"/>
</filter>
<filter id="filter1_f_0_448" x="32.9796" y="11.2561" width="28.7587" height="33.1378" filterUnits="userSpaceOnUse" color-interpolation-filters="sRGB">
<feFlood flood-opacity="0" result="BackgroundImageFix"/>
<feBlend mode="normal" in="SourceGraphic" in2="BackgroundImageFix" result="shape"/>
<feGaussianBlur stdDeviation="2" result="effect1_foregroundBlur_0_448"/>
</filter>
<filter id="filter2_f_0_448" x="32.9787" y="0" width="17.6485" height="17.6485" filterUnits="userSpaceOnUse" color-interpolation-filters="sRGB">
<feFlood flood-opacity="0" result="BackgroundImageFix"/>
<feBlend mode="normal" in="SourceGraphic" in2="BackgroundImageFix" result="shape"/>
<feGaussianBlur stdDeviation="2" result="effect1_foregroundBlur_0_448"/>
</filter>
<linearGradient id="paint0_linear_0_448" x1="107.725" y1="4.00139" x2="107.669" y2="14.5897" gradientUnits="userSpaceOnUse">
<stop stop-color="#7B94FF"/>
<stop offset="0.740385" stop-color="#5853B6"/>
<stop offset="1" stop-color="#29194D"/>
</linearGradient>
<linearGradient id="paint1_linear_0_448" x1="107.725" y1="12.8445" x2="107.272" y2="42.8389" gradientUnits="userSpaceOnUse">
<stop stop-color="#7B94FF"/>
<stop offset="0.740385" stop-color="#5853B6"/>
<stop offset="1" stop-color="#29194D"/>
</linearGradient>
<linearGradient id="paint2_linear_0_448" x1="85.216" y1="4.00097" x2="84.9361" y2="43.7068" gradientUnits="userSpaceOnUse">
<stop stop-color="#7B94FF"/>
<stop offset="0.740385" stop-color="#5853B6"/>
<stop offset="1" stop-color="#29194D"/>
</linearGradient>
<linearGradient id="paint3_linear_0_448" x1="58.2009" y1="22.8936" x2="58.297" y2="42.5876" gradientUnits="userSpaceOnUse">
<stop stop-color="#7B94FF"/>
<stop offset="0.740385" stop-color="#5853B6"/>
<stop offset="1" stop-color="#29194D"/>
</linearGradient>
<linearGradient id="paint4_linear_0_448" x1="33.4999" y1="29.8929" x2="67.2921" y2="30.7086" gradientUnits="userSpaceOnUse">
<stop offset="0.0721154" stop-color="#7283ED" stop-opacity="0.7"/>
<stop offset="0.316362" stop-color="#FFB85C" stop-opacity="0.36"/>
<stop offset="0.519898" stop-color="#FE9D80"/>
<stop offset="1" stop-color="#494195"/>
</linearGradient>
<radialGradient id="paint5_radial_0_448" cx="0" cy="0" r="1" gradientUnits="userSpaceOnUse" gradientTransform="translate(47.1163 13.2501) rotate(161.645) scale(12.3491 13.8758)">
<stop stop-color="#6D7AE2" stop-opacity="0.78"/>
<stop offset="0.283654" stop-color="#FE947C" stop-opacity="0.67"/>
<stop offset="0.692308" stop-color="#FDB78B" stop-opacity="0.44"/>
<stop offset="1" stop-color="#6469CF" stop-opacity="0.7"/>
</radialGradient>
<linearGradient id="paint6_linear_0_448" x1="63.5097" y1="11.2367" x2="63.4533" y2="21.825" gradientUnits="userSpaceOnUse">
<stop stop-color="#7B94FF"/>
<stop offset="0.740385" stop-color="#5853B6"/>
<stop offset="1" stop-color="#29194D"/>
</linearGradient>
<linearGradient id="paint7_linear_0_448" x1="17.2843" y1="2.39313" x2="17" y2="47.3931" gradientUnits="userSpaceOnUse">
<stop stop-color="#7B94FF"/>
<stop offset="0.740385" stop-color="#5853B6"/>
<stop offset="1" stop-color="#29194D"/>
</linearGradient>
</defs>
</svg>
