<svg preserveAspectRatio="none" width="100%" height="100%" overflow="visible" style="display: block;" viewBox="0 0 37 48.5" fill="none" xmlns="http://www.w3.org/2000/svg">
<g id="parent-icon">
<circle id="Ellipse 62" cx="12.5" cy="7.5" r="5" stroke="var(--stroke-0, #3A2F5A)" stroke-width="5"/>
<circle id="Ellipse 63" cx="30.5" cy="7.5" r="3.5" stroke="var(--stroke-0, #3A2F5A)" stroke-width="4"/>
<circle id="Ellipse 64" cx="28.5" cy="16.5" r="4.5" stroke="var(--stroke-0, #3A2F5A)" stroke-width="4"/>
<path id="Rectangle 4365" d="M8 13H17L17.0682 13.2047C17.9411 15.8232 20.2567 17.6952 23 18L34 20C34 20 30.5 26 21 24C21.2542 29.204 25 39 25 39H19C18.6682 41.9863 17.9344 44.9141 16.8185 47.7039L16.5 48.5H8L7.68154 47.7039C6.56563 44.9141 5.83181 41.9863 5.5 39H0V26.5C0 26.5 1 20.5 3 17.5C5 14.5 8 13 8 13Z" fill="var(--fill-0, #3A2F5A)"/>
</g>
</svg>
